<svg width="40" height="38" viewBox="0 0 40 38" fill="none" xmlns="http://www.w3.org/2000/svg">
<rect width="40" height="37.5" rx="5" fill="#14121F"/>
<path d="M29.2385 19.3186C29.224 16.9531 30.4344 15.1678 32.8844 13.8529C31.5135 12.1191 29.4427 11.1652 26.7083 10.9783C24.1198 10.7979 21.2906 12.3125 20.2552 12.3125C19.1615 12.3125 16.6531 11.0428 14.6844 11.0428C10.6156 11.1008 6.29167 13.9109 6.29167 19.6279C6.29167 21.3166 6.64167 23.0611 7.34167 24.8615C8.275 27.227 11.6438 33.0277 15.1583 32.9311C16.9958 32.8924 18.2938 31.7773 20.6854 31.7773C23.0042 31.7773 24.2073 32.9311 26.2563 32.9311C29.8 32.8859 32.8479 27.6137 33.7375 25.2418C28.9833 23.2631 29.2385 19.441 29.2385 19.3186ZM25.1115 8.73535C27.1021 6.64707 26.9198 4.7457 26.8615 4.0625C25.1042 4.15273 23.0698 5.11953 21.9104 6.31191C20.6344 7.58809 19.8833 9.16719 20.0438 10.9461C21.9469 11.075 23.6823 10.2113 25.1115 8.73535Z" fill="white"/>
</svg>
